<svg xmlns="http://www.w3.org/2000/svg" xmlns:xlink="http://www.w3.org/1999/xlink" width="166" height="40" viewBox="0 0 166 40"><defs><style>.a{fill:#4592ff;}.b{fill:#262d33;}.b,.d{fill-rule:evenodd;}.c{clip-path:url(#a);}.d{fill:#fff;}</style><clipPath id="a"><circle class="a" cx="20" cy="20" r="20"/></clipPath></defs><path class="b" d="M57.461,11.816v2.226l-1.93.38v9.614a3.577,3.577,0,0,0,.959,2.726,3.678,3.678,0,0,0,2.629.9,3.753,3.753,0,0,0,2.66-.9,3.56,3.56,0,0,0,.965-2.732V14.422l-1.918-.38V11.816h7.461v2.226l-1.93.38v9.614a5.9,5.9,0,0,1-2,4.782,7.862,7.862,0,0,1-5.24,1.682A7.794,7.794,0,0,1,53.9,28.818a5.921,5.921,0,0,1-1.986-4.782V14.422L50,14.042V11.816Zm11.779,16.2,1.732-.38V19.153l-1.918-.38V16.547h5.283l.161,1.961a4.948,4.948,0,0,1,1.646-1.632,4.2,4.2,0,0,1,2.19-.582A3.984,3.984,0,0,1,81.5,17.6a6.11,6.11,0,0,1,1.138,4.086v5.958l1.732.38v2.214h-6.9V28.021l1.547-.38V21.7a2.812,2.812,0,0,0-.544-1.954,2.163,2.163,0,0,0-1.646-.576,2.738,2.738,0,0,0-1.287.3,2.663,2.663,0,0,0-.953.841v7.337l1.46.38v2.214H69.241Zm16.172,0,1.745-.38V19.153l-1.93-.38V16.547H90.77V27.641l1.732.38v2.214h-7.09ZM90.77,13.27H87.157V10.5H90.77Zm8.6,5.5-1.262.24,1.769,6.123.235,1.29h.074l.26-1.29,1.745-6.11-1.287-.253V16.547h6.075v2.226l-1.163.19-3.947,11.271H98.417L94.457,18.963l-1.163-.19V16.547H99.37ZM114.378,30.5a5.961,5.961,0,0,1-4.628-1.9,6.873,6.873,0,0,1-1.732-4.82v-.506a7.6,7.6,0,0,1,1.639-5.022,6.018,6.018,0,0,1,8.606-.291,6.515,6.515,0,0,1,1.5,4.516v2.011h-7.993l-.025.076a3.615,3.615,0,0,0,.885,2.226,2.728,2.728,0,0,0,2.134.873,6.808,6.808,0,0,0,1.992-.247,9.054,9.054,0,0,0,1.732-.778l.977,2.277a7.058,7.058,0,0,1-2.147,1.126A8.955,8.955,0,0,1,114.378,30.5Zm-.322-11.36a1.867,1.867,0,0,0-1.584.784,4.141,4.141,0,0,0-.718,2.062l.037.063h4.43v-.329a3.01,3.01,0,0,0-.538-1.879A1.921,1.921,0,0,0,114.057,19.14Zm7.684,8.88,1.732-.38V19.153l-1.918-.38V16.547h5.283l.161,2a4.3,4.3,0,0,1,1.213-1.657,2.672,2.672,0,0,1,1.72-.595,4.325,4.325,0,0,1,.6.044,3.606,3.606,0,0,1,.526.108l-.384,3.365-1.485-.038a2.486,2.486,0,0,0-1.312.316,2.029,2.029,0,0,0-.792.9v6.654l1.732.38v2.214h-7.078Zm21.319-6.768h-2.425l-.384-1.708a3.142,3.142,0,0,0-.934-.506,3.653,3.653,0,0,0-1.244-.2,2.384,2.384,0,0,0-1.51.436,1.337,1.337,0,0,0-.557,1.094,1.254,1.254,0,0,0,.532,1.031,5.614,5.614,0,0,0,2.128.727,8.558,8.558,0,0,1,3.687,1.486,3.3,3.3,0,0,1,1.2,2.7A3.616,3.616,0,0,1,142,29.33a6.623,6.623,0,0,1-4.089,1.17,8.39,8.39,0,0,1-2.84-.462,7.213,7.213,0,0,1-2.3-1.322l-.037-3.074h2.524l.495,1.784a2.05,2.05,0,0,0,.879.411,5,5,0,0,0,1.163.133,2.9,2.9,0,0,0,1.677-.4,1.277,1.277,0,0,0,.575-1.1,1.294,1.294,0,0,0-.582-1.05,5.857,5.857,0,0,0-2.141-.784,8.479,8.479,0,0,1-3.57-1.461,3.2,3.2,0,0,1-1.206-2.638,3.861,3.861,0,0,1,1.386-2.966,5.705,5.705,0,0,1,3.947-1.246,9.942,9.942,0,0,1,2.951.43,6.184,6.184,0,0,1,2.184,1.1ZM153.7,30.234a6.77,6.77,0,0,1-.26-.7,5.639,5.639,0,0,1-.173-.727,4.985,4.985,0,0,1-1.565,1.227,4.6,4.6,0,0,1-2.11.468,4.361,4.361,0,0,1-3.124-1.094,3.9,3.9,0,0,1-1.157-2.979,3.409,3.409,0,0,1,1.51-2.973,7.748,7.748,0,0,1,4.43-1.05h1.844V21.063a2.042,2.042,0,0,0-.557-1.531,2.264,2.264,0,0,0-1.646-.544,3.817,3.817,0,0,0-1.1.145,2.85,2.85,0,0,0-.78.348l-.235,1.467h-2.722l.012-3.036a10.053,10.053,0,0,1,2.271-1.151,8.07,8.07,0,0,1,2.79-.468,6.257,6.257,0,0,1,4.04,1.246,4.287,4.287,0,0,1,1.553,3.548v5.655q0,.316.006.595a4.327,4.327,0,0,0,.043.531l1.1.152v2.214Zm-3.13-2.467a3.076,3.076,0,0,0,1.485-.361,2.886,2.886,0,0,0,1.039-.9V24.415h-1.844a2.481,2.481,0,0,0-1.745.55,1.739,1.739,0,0,0-.594,1.322,1.383,1.383,0,0,0,.439,1.088A1.766,1.766,0,0,0,150.57,27.768Zm8.142-15.041V10.5h5.543V27.641l1.745.38v2.214h-7.1V28.021l1.745-.38V13.106Z"/><circle class="a" cx="20" cy="20" r="20"/><g class="c"><path class="d" d="M2.081,29C-2.432,29-5,26.658-5,22.209V12h3.913v9.975c0,2.787.84,4,3.192,4,2.3,0,3.313-1.077,3.313-4.145V12H9.33V22.069C9.33,26.635,6.714,29,2.081,29Zm12-.258V12H18.6l6.529,11.029V12h3.457V28.742H24.692L17.539,16.824V28.742Zm23.74,0L32.086,12h4.1l4.081,12.855L44.351,12H48L42.287,28.742Z"/></g></svg>